<svg width="56" height="56" viewBox="0 0 56 56" fill="none" xmlns="http://www.w3.org/2000/svg">
<circle cx="28" cy="28" r="28" fill="#FCD34D"/>
<rect width="32" height="32" transform="translate(12 12)" fill="#FCD34D"/>
<path d="M18.8573 30.6667C17.89 29.0775 17.3335 27.2157 17.3335 25.2251C17.3335 19.3938 22.1091 14.6667 28.0002 14.6667C33.8912 14.6667 38.6668 19.3938 38.6668 25.2251C38.6668 27.2157 38.1104 29.0775 37.143 30.6667" stroke="#141B34" stroke-width="2" stroke-linecap="round"/>
<path d="M30.6665 25.3333C29.8499 26.1909 28.948 26.6667 27.9998 26.6667C27.0517 26.6667 26.1498 26.1909 25.3332 25.3333" stroke="#141B34" stroke-width="2" stroke-linecap="round"/>
<path d="M21.8437 34.7977C21.7212 34.4288 21.6599 34.2444 21.6671 34.095C21.6822 33.7791 21.8814 33.5017 22.1753 33.3874C22.3142 33.3333 22.5079 33.3333 22.8953 33.3333H33.1044C33.4918 33.3333 33.6855 33.3333 33.8244 33.3874C34.1183 33.5017 34.3175 33.7791 34.3326 34.095C34.3397 34.2444 34.2785 34.4288 34.156 34.7977C33.9296 35.4793 33.8164 35.8201 33.6418 36.0961C33.2761 36.6742 32.7027 37.089 32.0406 37.2544C31.7245 37.3333 31.3666 37.3333 30.6507 37.3333H25.349C24.6331 37.3333 24.2752 37.3333 23.9591 37.2544C23.2969 37.089 22.7236 36.6742 22.3578 36.0961C22.1832 35.8201 22.07 35.4793 21.8437 34.7977Z" stroke="#141B34" stroke-width="2"/>
<path d="M32 37.3333L31.8276 38.1955C31.639 39.1382 31.5448 39.6096 31.3335 39.9821C31.0069 40.5581 30.4777 40.9919 29.8488 41.1993C29.4421 41.3333 28.9614 41.3333 28 41.3333C27.0386 41.3333 26.5579 41.3333 26.1512 41.1993C25.5223 40.9919 24.9931 40.5581 24.6665 39.9821C24.4552 39.6096 24.361 39.1382 24.1724 38.1955L24 37.3333" stroke="#141B34" stroke-width="2"/>
<path d="M28 32.6667V26.6667" stroke="#141B34" stroke-width="2" stroke-linecap="round" stroke-linejoin="round"/>
</svg>
