<svg width="22" height="20" viewBox="0 0 22 20" fill="none" xmlns="http://www.w3.org/2000/svg">
<g id="elements">
<path id="Vector 7163" d="M1 3.99998L7.91302 7.91695C10.4616 9.36099 11.5384 9.36099 14.087 7.91695L21 3.99998" stroke="#7758F3" stroke-width="1.5" stroke-linejoin="round"/>
<path id="Vector" d="M1.01577 11.4756C1.08114 14.5411 1.11383 16.0739 2.24496 17.2093C3.37608 18.3448 4.95033 18.3843 8.09883 18.4634C10.0393 18.5122 11.9607 18.5122 13.9012 18.4634C17.0497 18.3843 18.6239 18.3448 19.7551 17.2093C20.8862 16.0739 20.9189 14.5411 20.9842 11.4756C21.0053 10.4899 21.0053 9.51005 20.9842 8.52436C20.9189 5.45883 20.8862 3.92606 19.7551 2.79063C18.6239 1.6552 17.0497 1.61565 13.9012 1.53654C11.9607 1.48778 10.0393 1.48778 8.09882 1.53653C4.95033 1.61563 3.37608 1.65518 2.24495 2.79062C1.11382 3.92605 1.08114 5.45882 1.01576 8.52435C0.994745 9.51004 0.994745 10.4899 1.01577 11.4756Z" stroke="#7758F3" stroke-width="1.5" stroke-linejoin="round"/>
</g>
</svg>
