<svg width="32" height="32" viewBox="0 0 32 32" fill="none" xmlns="http://www.w3.org/2000/svg">
<circle cx="16" cy="16" r="16" fill="#FCD34D"/>
<rect width="18.2857" height="18.2857" transform="translate(6.85742 6.85718)" fill="#FCD34D"/>
<path d="M10.776 17.5238C10.2233 16.6158 9.90527 15.5518 9.90527 14.4144C9.90527 11.0822 12.6342 8.38098 16.0005 8.38098C19.3668 8.38098 22.0958 11.0822 22.0958 14.4144C22.0958 15.5518 21.7778 16.6158 21.225 17.5238" stroke="#141B34" stroke-width="1.14286" stroke-linecap="round"/>
<path d="M17.5244 14.4763C17.0578 14.9663 16.5424 15.2382 16.0006 15.2382C15.4588 15.2382 14.9434 14.9663 14.4768 14.4763" stroke="#141B34" stroke-width="1.14286" stroke-linecap="round"/>
<path d="M12.4831 19.8844C12.4131 19.6737 12.3781 19.5683 12.3822 19.4829C12.3908 19.3024 12.5046 19.1439 12.6726 19.0785C12.752 19.0477 12.8626 19.0477 13.084 19.0477H18.9178C19.1391 19.0477 19.2498 19.0477 19.3292 19.0785C19.4972 19.1439 19.611 19.3024 19.6196 19.4829C19.6237 19.5683 19.5887 19.6737 19.5187 19.8844C19.3893 20.2739 19.3247 20.4687 19.2249 20.6264C19.0159 20.9567 18.6883 21.1937 18.3099 21.2883C18.1293 21.3334 17.9247 21.3334 17.5157 21.3334H14.4861C14.077 21.3334 13.8725 21.3334 13.6919 21.2883C13.3135 21.1937 12.9859 20.9567 12.7769 20.6264C12.6771 20.4687 12.6124 20.2739 12.4831 19.8844Z" stroke="#141B34" stroke-width="1.14286"/>
<path d="M18.2863 21.3334L18.1877 21.826C18.08 22.3647 18.0261 22.6341 17.9054 22.847C17.7188 23.1761 17.4164 23.424 17.057 23.5425C16.8246 23.6191 16.5499 23.6191 16.0006 23.6191C15.4512 23.6191 15.1765 23.6191 14.9441 23.5425C14.5848 23.424 14.2823 23.1761 14.0957 22.847C13.975 22.6341 13.9211 22.3647 13.8134 21.826L13.7148 21.3334" stroke="#141B34" stroke-width="1.14286"/>
<path d="M16.001 18.6667V15.2382" stroke="#141B34" stroke-width="1.14286" stroke-linecap="round" stroke-linejoin="round"/>
</svg>
