<svg width="22" height="22" viewBox="0 0 22 22" fill="none" xmlns="http://www.w3.org/2000/svg">
<g id="elements">
<path id="Rectangle 2076" d="M1.5 7.18677C1.60406 5.08705 1.91537 3.77792 2.84664 2.84664C3.77792 1.91537 5.08705 1.60406 7.18677 1.5M20.5 7.18677C20.3959 5.08705 20.0846 3.77792 19.1534 2.84664C18.2221 1.91537 16.9129 1.60406 14.8132 1.5M14.8132 20.5C16.9129 20.3959 18.2221 20.0846 19.1534 19.1534C20.0846 18.2221 20.3959 16.9129 20.5 14.8132M7.18676 20.5C5.08705 20.3959 3.77792 20.0846 2.84664 19.1534C1.91537 18.2221 1.60406 16.9129 1.5 14.8132" stroke="#72767D" stroke-width="1.5" stroke-linecap="round" stroke-linejoin="round"/>
<path id="Vector" d="M15.3494 11.199L16.092 11.0945L15.3494 11.199ZM13.4977 9.55336L13.5307 8.80408L13.4977 9.55336ZM13.4977 16.4466L13.5307 17.1959L13.4977 16.4466ZM15.3494 14.801L14.6067 14.6966L15.3494 14.801ZM8.50231 9.55336L8.53528 10.3026L8.50231 9.55336ZM6.65064 11.199L7.39333 11.3034L6.65064 11.199ZM8.50231 16.4466L8.46933 17.1959L8.50231 16.4466ZM6.65064 14.801L7.39333 14.6966L6.65064 14.801ZM7.75 9.5C7.75 9.91421 8.08579 10.25 8.5 10.25C8.91421 10.25 9.25 9.91421 9.25 9.5H7.75ZM12.75 9.5C12.75 9.91421 13.0858 10.25 13.5 10.25C13.9142 10.25 14.25 9.91421 14.25 9.5H12.75ZM11 15.75C10.1193 15.75 9.32082 15.7319 8.53528 15.6974L8.46933 17.1959C9.27749 17.2315 10.0979 17.25 11 17.25V15.75ZM13.4647 15.6974C12.6792 15.7319 11.8807 15.75 11 15.75V17.25C11.9021 17.25 12.7225 17.2315 13.5307 17.1959L13.4647 15.6974ZM16.092 14.9055C16.1761 14.3078 16.25 13.6654 16.25 13H14.75C14.75 13.5598 14.6877 14.1203 14.6067 14.6966L16.092 14.9055ZM16.25 13C16.25 12.3346 16.1761 11.6922 16.092 11.0945L14.6067 11.3034C14.6877 11.8797 14.75 12.4402 14.75 13H16.25ZM11 10.25C11.8807 10.25 12.6792 10.2681 13.4647 10.3026L13.5307 8.80408C12.7225 8.76852 11.9021 8.75 11 8.75V10.25ZM8.53528 10.3026C9.32082 10.2681 10.1193 10.25 11 10.25V8.75C10.0979 8.75 9.27749 8.76852 8.46933 8.80408L8.53528 10.3026ZM5.90795 11.0945C5.82389 11.6922 5.75 12.3346 5.75 13H7.25C7.25 12.4402 7.31229 11.8797 7.39333 11.3034L5.90795 11.0945ZM5.75 13C5.75 13.6654 5.82389 14.3078 5.90795 14.9055L7.39333 14.6966C7.31229 14.1203 7.25 13.5598 7.25 13H5.75ZM16.092 11.0945C15.9137 9.82679 14.828 8.86117 13.5307 8.80408L13.4647 10.3026C14.0614 10.3289 14.532 10.7725 14.6067 11.3034L16.092 11.0945ZM13.5307 17.1959C14.828 17.1388 15.9137 16.1732 16.092 14.9055L14.6067 14.6966C14.532 15.2275 14.0614 15.6711 13.4647 15.6974L13.5307 17.1959ZM8.46933 8.80408C7.17205 8.86117 6.08626 9.82679 5.90795 11.0945L7.39333 11.3034C7.46802 10.7725 7.9386 10.3289 8.53528 10.3026L8.46933 8.80408ZM8.53528 15.6974C7.9386 15.6711 7.46802 15.2275 7.39333 14.6966L5.90795 14.9055C6.08626 16.1732 7.17205 17.1388 8.46933 17.1959L8.53528 15.6974ZM9.25 9.5V8H7.75V9.5H9.25ZM12.75 8V9.5H14.25V8H12.75ZM14.25 8C14.25 6.20507 12.7949 4.75 11 4.75V6.25C11.9665 6.25 12.75 7.0335 12.75 8H14.25ZM9.25 8C9.25 7.0335 10.0335 6.25 11 6.25V4.75C9.20507 4.75 7.75 6.20507 7.75 8H9.25Z" fill="#72767D"/>
</g>
</svg>
