<svg width="24" height="24" viewBox="0 0 24 24" fill="none" xmlns="http://www.w3.org/2000/svg">
<path d="M3 12C7.5 12 12 7.5 12 3C12 7.5 16.5 12 21 12C16.5 12 12 16.5 12 21C12 16.5 7.5 12 3 12Z" stroke="url(#paint0_linear_887_2275)" stroke-width="1.5" stroke-linejoin="round"/>
<path d="M2 19.5C2.83333 19.5 4.5 17.8333 4.5 17C4.5 17.8333 6.16667 19.5 7 19.5C6.16667 19.5 4.5 21.1667 4.5 22C4.5 21.1667 2.83333 19.5 2 19.5Z" stroke="url(#paint1_linear_887_2275)" stroke-width="1.5" stroke-linejoin="round"/>
<path d="M16 5C17 5 19 3 19 2C19 3 21 5 22 5C21 5 19 7 19 8C19 7 17 5 16 5Z" stroke="url(#paint2_linear_887_2275)" stroke-width="1.5" stroke-linejoin="round"/>
<defs>
<linearGradient id="paint0_linear_887_2275" x1="3" y1="3" x2="23.2202" y2="5.99116" gradientUnits="userSpaceOnUse">
<stop stop-color="#DE00E0"/>
<stop offset="1" stop-color="#552EF0"/>
</linearGradient>
<linearGradient id="paint1_linear_887_2275" x1="2" y1="17" x2="7.61673" y2="17.8309" gradientUnits="userSpaceOnUse">
<stop stop-color="#DE00E0"/>
<stop offset="1" stop-color="#552EF0"/>
</linearGradient>
<linearGradient id="paint2_linear_887_2275" x1="16" y1="2" x2="22.7401" y2="2.99705" gradientUnits="userSpaceOnUse">
<stop stop-color="#DE00E0"/>
<stop offset="1" stop-color="#552EF0"/>
</linearGradient>
</defs>
</svg>
