<svg width="54" height="54" viewBox="0 0 54 54" fill="none" xmlns="http://www.w3.org/2000/svg">
<path d="M27.0002 16.3333L27.0002 37.6667M27.0002 16.3333C25.1329 16.3333 21.6442 21.6515 20.3335 23M27.0002 16.3333C28.8674 16.3333 32.3561 21.6515 33.6668 23" stroke="#333333" stroke-width="1.5" stroke-linecap="round" stroke-linejoin="round"/>
<path d="M1.66675 27C1.66675 15.0578 1.66675 9.08663 5.37673 5.37665C9.08671 1.66667 15.0578 1.66667 27.0001 1.66667C38.9423 1.66667 44.9135 1.66667 48.6234 5.37665C52.3334 9.08663 52.3334 15.0578 52.3334 27C52.3334 38.9423 52.3334 44.9134 48.6234 48.6234C44.9135 52.3333 38.9423 52.3333 27.0001 52.3333C15.0578 52.3333 9.08671 52.3333 5.37673 48.6234C1.66675 44.9134 1.66675 38.9423 1.66675 27Z" stroke="#333333" stroke-width="1.5"/>
</svg>
