<svg width="24" height="24" viewBox="0 0 24 24" fill="none" xmlns="http://www.w3.org/2000/svg">
<path d="M20.5743 17.5851C20.2283 18.2644 19.8009 18.912 19.2986 19.5181C18.6277 20.3252 18.0767 20.8829 17.6544 21.1933C16.9984 21.7005 16.2937 21.9615 15.5403 21.9762C15.0005 21.9762 14.3483 21.8468 13.5886 21.5837C12.8265 21.3217 12.1268 21.1933 11.4858 21.1933C10.8148 21.1933 10.0952 21.3217 9.32425 21.5837C8.55458 21.8468 7.93236 21.9846 7.45631 21.9973C6.73538 22.0236 6.01444 21.7563 5.29601 21.1933C4.83746 20.8566 4.26396 20.2779 3.57551 19.4592C2.83833 18.5869 2.23235 17.5714 1.75756 16.4171C1.24903 15.1681 0.994141 13.9601 0.994141 12.79C0.994141 11.4504 1.33774 10.294 2.02619 9.32592C2.5469 8.56563 3.29132 7.93108 4.18774 7.48341C5.07169 7.0369 6.08077 6.79648 7.11146 6.78681C7.68621 6.78681 8.43963 6.93624 9.37298 7.23087C10.3063 7.5255 10.9061 7.67492 11.1672 7.67492C11.3646 7.67492 12.0281 7.4992 13.1576 7.1509C14.2234 6.82785 15.123 6.69422 15.8601 6.74683C17.8593 6.88257 19.3599 7.5455 20.3582 8.74086C18.5715 9.65318 17.6881 10.9296 17.7056 12.5679C17.7206 13.8443 18.2716 14.9061 19.3511 15.7489C19.8284 16.1336 20.3852 16.4413 20.9941 16.657C20.8617 16.9801 20.7218 17.2884 20.5743 17.5851ZM15.9926 2.39994C15.9926 3.39958 15.5578 4.33399 14.6944 5.1979C13.6499 6.22491 12.3879 6.81943 11.0198 6.72578C11.0019 6.60008 10.9931 6.47357 10.9935 6.34697C10.9935 5.38625 11.4883 4.35925 12.3717 3.51849C12.8115 3.09338 13.3712 2.73876 14.0497 2.45676C14.7269 2.17896 15.3666 2.02533 15.9688 1.99902C15.9851 2.13371 15.9926 2.26735 15.9926 2.39994Z" fill="black"/>
</svg>
