<svg width="20" height="20" viewBox="0 0 20 20" fill="none" xmlns="http://www.w3.org/2000/svg">
<path d="M3.39742 3.39775L6.03037 6.0307M16.6019 16.6023L13.9692 13.9696M11.375 15.0064C10.9296 15.0909 10.47 15.1351 10 15.1351C6.71527 15.1351 3.93477 12.9762 3 9.99998C3.25448 9.18976 3.64574 8.44011 4.14672 7.77811M8.4435 8.44383C8.84176 8.04558 9.39195 7.79925 9.99967 7.79925C11.2151 7.79925 12.2004 8.78456 12.2004 10C12.2004 10.6077 11.9541 11.1579 11.5558 11.5562M8.4435 8.44383L11.5558 11.5562M8.4435 8.44383L6.03037 6.0307M11.5558 11.5562L6.03037 6.0307M11.5558 11.5562L13.9692 13.9696M6.03037 6.0307C7.17463 5.29299 8.53732 4.86491 9.99999 4.86491C13.2847 4.86491 16.0652 7.02379 17 10C16.4814 11.6511 15.3948 13.0506 13.9692 13.9696" stroke="#B9BBBE" stroke-width="1.67" stroke-linecap="round" stroke-linejoin="round"/>
</svg>
